<svg width="200" height="200" viewBox="0 0 200 200" fill="none" xmlns="http://www.w3.org/2000/svg">
<rect width="200" height="200" rx="100" fill="#171717"/>
<path d="M87.24 80.824L67.32 128.248H66.072L44.376 81.256L38.232 79.432V77.848H61.128V79.432L54.168 81.16L71.016 118.456H68.904L83.4 80.872L76.536 79.432V77.848H92.952V79.432L87.24 80.824ZM102.975 124.072L108.879 122.728L99.279 128.68L98.655 128.344L100.575 116.2V64.648C100.159 64.392 99.599 64.056 98.895 63.64C98.223 63.192 97.391 62.68 96.399 62.104C95.439 61.496 94.335 60.808 93.087 60.04V59.32L109.503 55.768H110.031L109.407 63.688V114.856C109.407 116.936 109.935 118.792 110.991 120.424C112.047 122.056 113.487 123.336 115.311 124.264C117.135 125.192 119.167 125.656 121.407 125.656C124.543 125.656 127.215 124.824 129.423 123.16C131.631 121.464 133.311 119 134.463 115.768C135.615 112.504 136.191 108.536 136.191 103.864C136.191 99.288 135.631 95.496 134.511 92.488C133.391 89.448 131.711 87.192 129.471 85.72C127.231 84.216 124.415 83.464 121.023 83.464C119.231 83.464 117.519 83.672 115.887 84.088C114.255 84.472 112.687 85.112 111.183 86.008C109.679 86.904 108.207 88.12 106.767 89.656L106.047 88.696C108.159 86.424 110.111 84.536 111.903 83.032C113.727 81.496 115.423 80.28 116.991 79.384C118.559 78.488 120.047 77.848 121.455 77.464C122.863 77.08 124.223 76.888 125.535 76.888C129.727 76.888 133.311 77.864 136.287 79.816C139.295 81.736 141.599 84.424 143.199 87.88C144.799 91.336 145.599 95.384 145.599 100.024C145.599 104.44 144.959 108.376 143.679 111.832C142.399 115.288 140.591 118.216 138.255 120.616C135.919 123.016 133.151 124.84 129.951 126.088C126.751 127.336 123.231 127.96 119.391 127.96C117.535 127.96 115.631 127.816 113.679 127.528C111.759 127.272 109.887 126.856 108.063 126.28C106.239 125.704 104.543 124.968 102.975 124.072ZM157.638 117.676C159.126 117.676 160.338 118.156 161.274 119.116C162.234 120.076 162.714 121.264 162.714 122.68C162.714 124.072 162.234 125.26 161.274 126.244C160.338 127.204 159.126 127.684 157.638 127.684C156.174 127.684 154.962 127.204 154.002 126.244C153.042 125.26 152.562 124.072 152.562 122.68C152.562 121.264 153.042 120.076 154.002 119.116C154.986 118.156 156.198 117.676 157.638 117.676Z" fill="white"/>
</svg>
